<svg height="512" viewBox="0 0 512 512" width="512" xmlns="http://www.w3.org/2000/svg"><g id="filled_outline" data-name="filled outline"><path d="m296 344 147.882 73.941a60 60 0 0 1 32.564 45.18l3.554 24.879h-448l3.554-24.879a60 60 0 0 1 32.564-45.18l147.882-73.941z" fill="#eaeae8"/><path d="m208 368h96v120h-96z" fill="#b0d2fd"/><path d="m216 312v32l-8 24h48 48l-8-24v-32z" fill="#fdc9a6"/><path d="m360 200v-73.675a53.9 53.9 0 0 0 -15.786-38.111l-16.428-16.428a53.9 53.9 0 0 0 -38.111-15.786h-52.831a53.9 53.9 0 0 0 -44.844 24l-9.464 3.155a44.658 44.658 0 0 0 -23.036 17.594 44.666 44.666 0 0 0 -7.5 24.773v74.478z" fill="#55300b"/><path d="m296 312v19.64c-.08.06-.17.11-.25.17a70.9 70.9 0 0 1 -79.75-.17v-19.64z" fill="#e6af89"/><path d="m256 328a70.9 70.9 0 0 1 -65.827-44.567 198.156 198.156 0 0 1 -14.173-73.596v-57.837l24-40.73 5.114 4.185a126.266 126.266 0 0 0 79.962 28.545h50.924v65.837a198.156 198.156 0 0 1 -14.173 73.6 70.9 70.9 0 0 1 -65.827 44.563z" fill="#fdc9a6"/><g fill="#55300b"><path d="m304 184a7.988 7.988 0 0 1 -2.531-.413l-24-8a8 8 0 1 1 5.06-15.178l24 8a8 8 0 0 1 -2.529 15.591z"/><circle cx="290" cy="202" r="10"/><path d="m208 184a8 8 0 0 1 -2.529-15.591l24-8a8 8 0 1 1 5.06 15.178l-24 8a7.992 7.992 0 0 1 -2.531.413z"/><circle cx="222" cy="202" r="10"/></g><path d="m246.111 280h-6.111a8 8 0 0 1 0-16h6.111a68.118 68.118 0 0 0 30.311-7.155 8 8 0 1 1 7.156 14.31 84.209 84.209 0 0 1 -37.467 8.845z" fill="#e6af89"/><path d="m264 248h-16a8 8 0 0 1 -8-8v-24a8 8 0 0 1 16 0v16h8a8 8 0 0 1 0 16z" fill="#e6af89"/><path d="m176 176h-11.056a20.944 20.944 0 0 0 -20.944 20.944v14.112a20.944 20.944 0 0 0 2.211 9.366 20.944 20.944 0 0 0 18.733 11.578h19.056z" fill="#fdc9a6"/><path d="m336 176h11.056a20.944 20.944 0 0 1 20.944 20.944v14.112a20.944 20.944 0 0 1 -2.211 9.366 20.944 20.944 0 0 1 -18.733 11.578h-19.056z" fill="#fdc9a6"/><path d="m72 488v-32a8 8 0 0 1 16 0v32z" fill="#cbcbcb"/><path d="m424 488v-32a8 8 0 0 1 16 0v32z" fill="#cbcbcb"/><path d="m224 392 16 32h32l16-32-32-24z" fill="#0296e5"/><path d="m240 424-8 64h48l-8-64z" fill="#0296e5"/><path d="m274 440h-36l2-16h32z" fill="#0296e5"/><path d="m256 368-56 40-16-48 24-24z" fill="#b0d2fd"/><path d="m256 368 56 40 16-48-24-24z" fill="#b0d2fd"/><path d="m274 440h-36l2-16h32z" fill="#026ca2"/><path d="m32 496h448a8 8 0 0 0 7.92-9.131l-3.554-24.88a68.013 68.013 0 0 0 -36.906-51.2l-114.721-57.364-23.082-23.082a7.991 7.991 0 0 0 -5.657-2.343v-8c0-.065-.008-.128-.01-.192a78.849 78.849 0 0 0 25.265-33.4 205.509 205.509 0 0 0 12.534-46.408h5.267a28.785 28.785 0 0 0 25.888-16 29.092 29.092 0 0 0 3.056-12.944v-14.112a28.831 28.831 0 0 0 -8.06-20.008 7.826 7.826 0 0 0 .06-.936v-49.675a61.49 61.49 0 0 0 -18.129-43.767l-16.428-16.429a61.488 61.488 0 0 0 -43.767-18.129h-52.831a61.763 61.763 0 0 0 -49.88 25.246l-6.959 2.319a52.66 52.66 0 0 0 -36.006 49.956v50.479a8.04 8.04 0 0 0 .059.936 28.834 28.834 0 0 0 -8.059 20.008v14.112a29.092 29.092 0 0 0 3.056 12.944 28.785 28.785 0 0 0 25.888 16h5.268a205.454 205.454 0 0 0 12.533 46.4 78.849 78.849 0 0 0 25.265 33.4c0 .064-.01.127-.01.192v8a7.992 7.992 0 0 0 -5.657 2.34l-23.082 23.082-114.721 57.372a68.013 68.013 0 0 0 -36.906 51.2l-3.554 24.883a8 8 0 0 0 7.92 9.131zm192.938-16h-8.938v-72a8 8 0 0 0 -.145-1.494l4.756-3.4 11.15 22.3zm16.124 0 6-48h17.876l6 48zm25.994-64h-22.112l-11.152-22.3 22.208-15.868 22.208 15.868zm21.014-78.995-32.07 21.38-32.07-21.38a7.938 7.938 0 0 0 .07-1v-6.715a79.6 79.6 0 0 0 64 0v6.71a7.938 7.938 0 0 0 .07 1.005zm7.93 70.995v72h-8.938l-6.823-54.589 11.15-22.3 4.756 3.4a8 8 0 0 0 -.145 1.489zm36.673-36.719 107.627 53.819a52.014 52.014 0 0 1 28.222 39.156l2.254 15.744h-30.776v-24a8 8 0 0 0 -16 0v24h-112v-64a8 8 0 0 0 7.589-5.47zm-13.826-9.12-11.011 33.033-37.754-26.967 32.9-21.933zm41.153-165.217v14.112a13.024 13.024 0 0 1 -1.366 5.789 12.876 12.876 0 0 1 -11.578 7.155h-3.543q.48-7.049.487-14.163v-25.837h3.056a12.959 12.959 0 0 1 12.944 12.944zm-195.056 27.056a12.876 12.876 0 0 1 -11.578-7.155 13.024 13.024 0 0 1 -1.366-5.789v-14.112a12.959 12.959 0 0 1 12.944-12.944h3.056v25.837q0 7.113.487 14.163zm4.163-76.062a8.015 8.015 0 0 0 -1.107 4.062v16h-3.056a28.987 28.987 0 0 0 -4.944.431v-42.91a36.657 36.657 0 0 1 25.065-34.777l9.464-3.155a7.989 7.989 0 0 0 4.127-3.151 45.8 45.8 0 0 1 38.189-20.438h52.831a45.594 45.594 0 0 1 32.453 13.442l16.428 16.429a45.6 45.6 0 0 1 13.443 32.454v42.106a28.987 28.987 0 0 0 -4.944-.431h-3.056v-24a8 8 0 0 0 -8-8h-50.924a118.581 118.581 0 0 1 -74.9-26.736l-5.115-4.185a8 8 0 0 0 -11.959 2.129zm28.493 132.524a189.337 189.337 0 0 1 -13.6-70.625v-55.655l18.17-30.835a134.648 134.648 0 0 0 82.906 28.653h42.924v57.837a189.337 189.337 0 0 1 -13.6 70.625 62.9 62.9 0 0 1 -116.8 0zm11.419 65.832 32.9 21.933-37.754 26.967-11.011-33.033zm-165.545 117.959a52.014 52.014 0 0 1 28.226-39.153l107.631-53.815 13.079 39.245a8 8 0 0 0 7.59 5.47v64h-112v-24a8 8 0 0 0 -16 0v24h-30.776z"/><path d="m277.47 175.589 24 8a8 8 0 1 0 5.06-15.178l-24-8a8 8 0 1 0 -5.06 15.178z"/><circle cx="290" cy="202" r="10"/><path d="m239.59 165.47a8 8 0 0 0 -10.12-5.059l-24 8a8 8 0 1 0 5.06 15.178l24-8a8 8 0 0 0 5.06-10.119z"/><circle cx="222" cy="202" r="10"/><path d="m276.422 256.845a68.118 68.118 0 0 1 -30.311 7.155h-6.111a8 8 0 0 0 0 16h6.111a84.209 84.209 0 0 0 37.467-8.845 8 8 0 1 0 -7.156-14.31z"/><path d="m240 240a8 8 0 0 0 8 8h16a8 8 0 0 0 0-16h-8v-16a8 8 0 0 0 -16 0z"/></g></svg>