<svg id="Capa_1" enable-background="new 0 0 512.143 512.143" height="512" viewBox="0 0 512.143 512.143" width="512" xmlns="http://www.w3.org/2000/svg"><g><g><path d="m443.431 504.643h-374.72c-.29-5.03-.29-9.95-.06-14.72 1.93-40.6 21.39-78.26 52.33-104.63 12.75-10.88 25.87-19.51 38-26.27 15.13-8.42 28.72-13.93 38.12-17.25 3.423-1.202 6.293-2.113 8.482-2.77 2.26-.678 4.562-1.164 6.867-1.669 17.615-3.861 14.702-33.111 14.702-33.111h57.84s-2.913 29.249 14.702 33.111c2.304.505 4.607.992 6.867 1.669 2.189.656 5.058 1.568 8.482 2.77 9.4 3.32 22.99 8.83 38.12 17.25 12.13 6.76 25.25 15.39 38 26.27 30.94 26.37 50.4 64.03 52.33 104.63.228 4.77.228 9.69-.062 14.72z" fill="#ffcebf"/></g><g><path d="m443.431 504.641h-19.31c0-2.47-.05-4.91-.17-7.31-1.93-40.6-21.39-78.26-52.33-104.63-12.75-10.88-25.87-19.51-38-26.27-8.764-4.885-18.201-8.362-27.648-11.664-4.721-1.65-9.457-3.258-14.144-5.003-4.134-1.539-8.637-2.41-12.534-4.538-7.152-3.905-10.144-13.064-11.837-20.489-1.513-6.639-2.385-13.694-2.106-20.516h19.64s-2.913 29.249 14.702 33.111c2.304.505 4.607.992 6.867 1.669 2.189.656 5.058 1.568 8.482 2.77 9.4 3.32 22.99 8.83 38.12 17.25 12.13 6.76 25.25 15.39 38 26.27 30.94 26.37 50.4 64.03 52.33 104.63.228 4.771.228 9.691-.062 14.72z" fill="#ffb09e"/></g><g><path d="m443.431 504.643h-374.72c-.29-5.03-.29-9.95-.06-14.72 1.93-40.6 21.39-78.26 52.33-104.63 12.75-10.88 25.87-19.51 38-26.27 15.13-8.42 28.72-13.93 38.12-17.25 7.68 23.9 24.08 60.23 58.97 101.7 34.89-41.47 51.29-77.8 58.97-101.7 9.4 3.32 22.99 8.83 38.12 17.25 12.13 6.76 25.25 15.39 38 26.27 30.94 26.37 50.4 64.03 52.33 104.63.23 4.77.23 9.69-.06 14.72z" fill="#d9e7ec"/></g><g><path d="m443.431 504.641h-19.31c0-2.47-.05-4.91-.17-7.31-1.93-40.6-21.39-78.26-52.33-104.63-12.75-10.88-25.87-19.51-38-26.27-7.55-4.21-15.61-7.37-23.75-10.28 2.06-5.18 3.76-9.99 5.17-14.38 9.4 3.32 22.99 8.83 38.12 17.25 12.13 6.76 25.25 15.39 38 26.27 30.94 26.37 50.4 64.03 52.33 104.63.23 4.771.23 9.691-.06 14.72z" fill="#b6c4cf"/></g><g><path d="m353.161 359.022c-15.13-8.42-28.72-13.93-38.12-17.25-7.68 23.9-24.08 60.23-58.97 101.7-34.89-41.47-51.29-77.8-58.97-101.7-9.4 3.32-22.99 8.83-38.12 17.25 17.41 43.78 43.94 82.78 69.74 113.99 9.37 11.34 18.65 21.65 27.35 30.79.27.28.54.56.8.84h61.75c-13.01-10.67-24.7-21.24-35.2-31.63 25.8-31.21 52.33-70.21 69.74-113.99z" fill="#fe646f"/></g><g><path d="m283.421 473.012c10.5 10.39 22.19 20.96 35.2 31.63h-24.95c-8.622-6.836-18.509-14.403-26.622-21.271-5.602-4.742-6.45-13.047-1.932-18.832 24.539-31.423 53.967-73.921 70.334-114.477 5.52 2.53 11.48 5.5 17.71 8.96-17.41 43.78-43.94 82.78-69.74 113.99z" fill="#fd4755"/></g><g><g><path d="m138.054 90.663.002 108.998c0 4.029.202 8.015.596 11.938 5.968 59.689 56.258 106.299 117.419 106.299 32.597 0 62.098-13.238 83.45-34.63 18.724-18.759 31.182-43.786 33.969-71.669.394-3.922.596-7.909.596-11.938l.002-108.998h-56l-62.017-40.763-85.469 40.762h-32.548z" fill="#ffeee6"/></g><g><g><path d="m140.447 202.254h-5.166c-15.674 0-28.38-12.706-28.38-28.38v-.053c0-15.674 12.706-28.38 28.38-28.38h5.166z" fill="#ffcebf"/></g><g><path d="m371.695 202.254h5.166c15.674 0 28.38-12.706 28.38-28.38v-.053c0-15.674-12.706-28.38-28.38-28.38h-5.166z" fill="#ffcebf"/></g></g><g><path d="m374.084 90.663v108.995c0 4.036-.201 8.022-.594 11.938-2.79 27.891-15.249 52.916-33.973 71.675-21.352 21.393-50.853 34.622-83.446 34.622-3.706 0-7.383-.172-10.999-.505 23.355-2.126 44.652-11.073 62.064-24.828 3.659-2.89 7.225-5.994 10.514-9.289 18.724-18.759 31.183-43.784 33.963-71.675.393-3.915.594-7.901.594-11.938l.01-108.995h21.867z" fill="#ffdfcf"/></g><g><path d="m374.086 178.354v21.307c0 4.029-.202 8.015-.596 11.938-2.787 27.883-15.245 52.91-33.969 71.669-21.352 21.392-50.853 34.63-83.45 34.63-61.162 0-111.451-46.61-117.42-106.299-.394-3.922-.596-7.909-.596-11.938v-21.307s24.392 37.223 88.429 47.391c19.593 3.111 39.579 3.111 59.173 0 64.037-10.168 88.429-47.391 88.429-47.391z" fill="#f5f8f9"/></g><g><path d="m374.084 178.356v21.302c0 4.036-.201 8.022-.594 11.938-2.79 27.891-15.249 52.916-33.973 71.675-21.352 21.393-50.853 34.622-83.446 34.622-2.873 0-5.656-.093-8.521-.303-.826-.061-1.641-.131-2.457-.202 23.347-2.139 44.629-11.07 62.043-24.823 3.656-2.896 7.222-5.994 10.515-9.294 18.724-18.759 31.183-43.784 33.963-71.675.393-3.915.594-7.901.594-11.938v-.192c15.299-11.069 21.876-21.11 21.876-21.11z" fill="#d9e7ec"/></g></g><g><path d="m359.809 7.5h-19.165c-4.855 0-9.139 2.421-11.722 6.12-1.081 1.548-3.332 1.548-4.413 0-2.583-3.699-6.867-6.12-11.722-6.12h-19.165c-4.855 0-9.139 2.421-11.722 6.12-1.081 1.548-3.332 1.548-4.413 0-2.583-3.699-6.867-6.12-11.723-6.12h-19.164c-4.855 0-9.139 2.421-11.722 6.12-1.081 1.548-3.332 1.548-4.413 0-2.583-3.699-6.867-6.12-11.722-6.12h-19.164c-4.855 0-9.139 2.421-11.722 6.12-1.081 1.548-3.332 1.548-4.413 0-2.583-3.699-6.867-6.12-11.722-6.12h-19.164c-7.902 0-14.308 6.406-14.308 14.308l-.224 122.543s20.686-15.939 33.862-37.951c6.414-10.715 19.169-15.861 31.233-12.633l33.943 9.081c12.453 3.331 25.562 3.331 38.015 0l33.943-9.081c12.064-3.227 24.819 1.918 31.233 12.633 13.176 22.013 33.862 37.951 33.862 37.951v-122.544c-.001-7.902-6.406-14.307-14.308-14.307z" fill="#433f43"/></g><g><path d="m374.121 21.812v122.54s-10.97-8.45-22.01-21.54v-101c0-7.41-5.63-13.5-12.84-14.24.45-.05.91-.07 1.37-.07h19.17c7.9 0 14.31 6.4 14.31 14.31z" fill="#383538"/></g><g><path d="m211.007 194.644c4.142 0 7.5-3.357 7.5-7.5v-13.576c0-4.143-3.358-7.5-7.5-7.5s-7.5 3.357-7.5 7.5v13.576c0 4.142 3.358 7.5 7.5 7.5z"/><path d="m301.136 194.644c4.142 0 7.5-3.357 7.5-7.5v-13.576c0-4.143-3.358-7.5-7.5-7.5s-7.5 3.357-7.5 7.5v13.576c0 4.142 3.357 7.5 7.5 7.5z"/><path d="m450.998 489.813c-1.93-41.896-21.947-82.059-54.917-110.188-26.622-22.714-60.348-42.029-94.795-49.622-4.361-.962-6.626-5.395-7.784-10.27 19.167-5.971 36.73-16.542 51.327-31.167 20.427-20.466 33.256-47.535 36.123-76.218.026-.262.052-1.241.077-2.844 17.827-2.073 31.712-17.26 31.712-35.684 0-18.252-13.702-33.353-31.358-35.585.151-53.533.233-116.428.233-116.428.001-12.024-9.782-21.807-21.807-21.807h-19.165c-5.142 0-10.059 1.822-13.929 5.038-3.87-3.216-8.786-5.038-13.928-5.038h-19.165c-5.142 0-10.059 1.822-13.929 5.038-3.869-3.216-8.786-5.038-13.928-5.038h-19.164c-5.142 0-10.058 1.822-13.929 5.038-3.869-3.216-8.786-5.038-13.928-5.038h-19.164c-5.143 0-10.059 1.822-13.929 5.038-3.871-3.216-8.787-5.038-13.929-5.038h-19.165c-12.025 0-21.808 9.783-21.808 21.792l-.045 21.431c-.009 4.142 3.342 7.507 7.5 7.516 4.134 0 7.491-3.348 7.5-7.484l.045-21.446c0-3.754 3.054-6.808 6.808-6.808h19.165c2.215 0 4.299 1.089 5.573 2.915 1.91 2.733 5.033 4.366 8.355 4.366s6.445-1.633 8.355-4.367c1.274-1.825 3.357-2.914 5.573-2.914h19.164c2.216 0 4.299 1.089 5.573 2.915 1.91 2.734 5.034 4.366 8.356 4.366 3.322-.001 6.446-1.634 8.354-4.367 1.274-1.824 3.358-2.914 5.574-2.914h19.164c2.216 0 4.299 1.089 5.574 2.915 1.91 2.733 5.033 4.366 8.355 4.366s6.446-1.633 8.356-4.367c1.274-1.825 3.357-2.914 5.573-2.914h19.165c2.215 0 4.299 1.089 5.573 2.915 1.91 2.733 5.033 4.366 8.355 4.366s6.445-1.633 8.355-4.367c1.274-1.825 3.357-2.914 5.573-2.914h19.165c3.754 0 6.808 3.054 6.808 6.808v89.111c-.014.189-.029.377-.029.57v15.983c-6.33-6.341-13.97-15.021-19.898-24.925-8.087-13.51-24.375-20.102-39.606-16.025l-33.944 9.08c-11.167 2.987-22.971 2.987-34.138 0l-33.943-9.08c-15.232-4.079-31.519 2.515-39.606 16.026-5.927 9.901-13.567 18.583-19.896 24.923l.09-49.27c.007-4.143-3.344-7.506-7.5-7.514-4.135 0-7.492 3.349-7.5 7.486l-.06 32.672c-.007.078-.013 12.177-.018 27.415-17.565 2.316-31.169 17.378-31.169 35.614 0 18.313 13.795 33.456 31.537 35.608.074.957.155 1.913.251 2.863 3.084 30.847 17.44 59.375 40.422 80.329 13.664 12.458 29.717 21.608 47.019 27.018-1.205 4.948-3.51 9.37-7.774 10.312-34.606 7.641-68.201 26.887-94.956 49.759-32.217 27.54-52.13 66.817-54.633 107.762-.36 5.882-.375 11.786-.043 17.549.228 3.969 3.513 7.07 7.488 7.07h374.72c3.975 0 7.259-3.102 7.488-7.069.29-5.018.317-10.153.081-15.263zm-69.661-336.38c9.368 2.057 16.404 10.418 16.404 20.441 0 10.038-7.122 18.443-16.578 20.432.065-10.556.123-24.915.174-40.873zm-250.78 40.764c-9.242-2.149-16.156-10.444-16.156-20.377 0-9.889 6.918-18.18 16.164-20.325-.004 16.08-.007 32.458-.008 40.702zm14.998-46.311c6.423-5.412 21.886-19.457 32.767-37.635 4.665-7.793 14.063-11.593 22.86-9.24l33.943 9.08c13.703 3.668 28.189 3.666 41.891 0l33.944-9.08c8.794-2.351 18.194 1.447 22.859 9.239 10.881 18.179 26.345 32.224 32.767 37.636v27.999c-2.343 2.984-8.079 9.608-17.823 16.814-12.12 8.964-33.111 20.688-64.283 25.638-18.852 2.994-37.969 2.994-56.82 0-52.033-8.261-76.56-35.457-82.105-42.462zm36.162 133.703c-20.243-18.456-32.887-43.578-35.603-70.739-.37-3.692-.558-7.457-.558-11.189v-2.088c13.989 12.498 39.396 29.171 79.753 35.58 10.207 1.621 20.484 2.431 30.763 2.431 10.278 0 20.556-.81 30.763-2.431 40.356-6.408 65.763-23.082 79.753-35.58v2.088c0 3.732-.188 7.497-.559 11.192-2.524 25.255-13.823 49.091-31.814 67.116-20.873 20.912-48.625 32.429-78.142 32.429-27.575-.001-53.981-10.232-74.356-28.809zm26.104 64.574c1.706-.512 3.529-.912 5.461-1.336 10.321-2.268 16.677-10.056 19.535-19.947.038-.131.419-1.572.424-1.571 7.475 1.38 15.112 2.089 22.83 2.089 7.742 0 15.374-.706 22.83-2.071 2.463 9.787 8.047 18.872 19.153 21.324 2.03.448 4.215.897 6.262 1.511.374.112.771.234 1.177.359-7.664 21.241-22.157 51.165-49.423 85.14-27.266-33.975-41.759-63.898-49.423-85.14.406-.125.802-.246 1.174-.358zm-131.835 150.98c-.009-2.89.075-5.798.252-8.703 2.256-36.908 20.265-72.363 49.408-97.275 9.913-8.474 20.028-15.53 29.707-21.383 15.383 35.998 38.061 72.291 67.586 108.008 5.345 6.469 10.944 12.942 16.733 19.354h-163.686zm245.338 0c-9.749-8.077-19.057-16.358-27.75-24.708 9.33-11.576 18.04-23.338 25.945-35.039 2.319-3.432 1.416-8.094-2.016-10.413-3.433-2.316-8.095-1.417-10.414 2.017-8.858 13.111-18.766 26.312-29.448 39.234-2.474 2.992-2.254 7.379.505 10.109 6.376 6.31 13.101 12.595 20.108 18.799h-38.163c-8.972-9.49-17.573-19.207-25.589-28.908-29.013-35.097-51.201-70.662-66.022-105.81 9.03-4.706 17.299-8.301 24.014-10.932 8.632 23.949 25.418 58.273 57.839 96.808 1.425 1.694 3.525 2.672 5.739 2.672 2.213 0 4.314-.978 5.739-2.672 32.421-38.535 49.208-72.858 57.839-96.808 6.715 2.631 14.983 6.225 24.013 10.931-5.067 12.007-11.049 24.175-17.823 36.25l-.489.868c-2.032 3.609-.753 8.183 2.856 10.215 3.61 2.034 8.183.755 10.215-2.855l.494-.879c6.763-12.055 12.756-24.205 17.896-36.226 9.624 5.82 19.677 12.829 29.534 21.239 29.826 25.447 47.929 61.702 49.669 99.468.102 2.215.149 4.433.142 6.641h-114.833z"/></g></g></svg>