<svg height="512" viewBox="0 0 512 512" width="512" xmlns="http://www.w3.org/2000/svg"><g><g><g><g><path d="m360 152v96a104 104 0 1 1 -208 0v-96z" fill="#ffdaaa"/><path d="m278.54 385.81c-.16.06-.31.12-.47.17a.462.462 0 0 0 -.07-.07z" fill="#ffdaaa"/><path d="m496 496h-480l18.75-57.63a80.021 80.021 0 0 1 60.44-56.31l74.8-15.74c5.92 20.4 18.82 56.08 38.01 65.68 0 0 8.57-30 25.72-46.09a132.548 132.548 0 0 0 22.28 6.09 132.317 132.317 0 0 0 22.07-6.02c17.1 16.1 25.65 46.02 25.65 46.02 19.15-9.58 32.81-45.11 38.94-65.55l74.15 15.61a80.021 80.021 0 0 1 60.44 56.31z" fill="#1a6fb0"/><g fill="#ffdaaa"><path d="m140 192h12a0 0 0 0 1 0 0v64a0 0 0 0 1 0 0h-12a20 20 0 0 1 -20-20v-24a20 20 0 0 1 20-20z"/><path d="m380 192h12a0 0 0 0 1 0 0v64a0 0 0 0 1 0 0h-12a20 20 0 0 1 -20-20v-24a20 20 0 0 1 20-20z" transform="matrix(-1 0 0 -1 752 448)"/></g></g><path d="m360 124v60c-49.96 0-40-48-56-32-33.481 33.481-113.391 32-124 32a84 84 0 1 1 75.92-120h44.08a60 60 0 0 1 60 60z" fill="#5f4d37"/></g><g fill="#ffdaaa"><circle cx="208" cy="216" r="16"/><circle cx="304" cy="216" r="16"/><path d="m312 335.66v16.34a24.324 24.324 0 0 1 -1.34 8c-3.83 11.04-15.29 18.63-26.73 23.63l-.02.01c-1.8.79-3.6 1.51-5.37 2.17l-.54.1a.462.462 0 0 1 .07.07 132.317 132.317 0 0 1 -22.07 6.02 132.548 132.548 0 0 1 -22.28-6.09c-2.04-.76-4.13-1.6-6.21-2.53l-.08-.04c-11.23-5-22.34-12.51-26.09-23.34a24.324 24.324 0 0 1 -1.34-8v-16.34a104.131 104.131 0 0 0 112 0z"/><path d="m278.54 385.81c-.16.06-.31.12-.47.17a.462.462 0 0 0 -.07-.07z"/></g><path d="m233.72 385.91c-17.15 16.09-25.72 46.09-25.72 46.09-19.19-9.6-32.09-45.28-38.01-65.68l10.36-2.18 19.65-4.14h1.34c3.75 10.83 14.86 18.34 26.09 23.34l.08.04c2.08.93 4.17 1.77 6.21 2.53z" fill="#003f8a"/><path d="m180.35 364.14-10.36 2.18" fill="none"/><path d="m233.72 385.91c-2.04-.76-4.13-1.6-6.21-2.53z" fill="#ffdaaa"/><path d="m342.66 366.45c-6.13 20.44-19.79 55.97-38.94 65.55 0 0-8.55-29.92-25.65-46.02.16-.05.31-.11.47-.17 1.77-.66 3.57-1.38 5.37-2.17l.02-.01c11.44-5 22.9-12.59 26.73-23.63h1.34l19.98 4.21z" fill="#003f8a"/><path d="m278 385.91.54-.1c-.16.06-.31.12-.47.17a.462.462 0 0 0 -.07-.07z" fill="#ffdaaa"/><path d="m278.54 385.81 5.37-2.17c-1.8.79-3.6 1.51-5.37 2.17z" fill="#ffdaaa"/><path d="m342.66 366.45-10.68-2.24" fill="none"/><circle cx="232" cy="448" fill="#ffdaaa" r="8"/><circle cx="232" cy="488" fill="#ffdaaa" r="8"/></g><g><path d="m503.61 493.53-18.71-57.5a87.8 87.8 0 0 0 -66.44-61.8l-98.46-20.72v-13.65a112.136 112.136 0 0 0 46.85-75.86h5.15a28.031 28.031 0 0 0 28-28v-24a28.031 28.031 0 0 0 -28-28h-4v-60a68.071 68.071 0 0 0 -68-68h-39.18a92.008 92.008 0 1 0 -118.33 128h-2.49a28.031 28.031 0 0 0 -28 28v24a28.031 28.031 0 0 0 28 28h5.15a112.136 112.136 0 0 0 46.85 75.86v13.65l-98.46 20.72a87.8 87.8 0 0 0 -66.44 61.8l-18.71 57.5a8.005 8.005 0 0 0 7.61 10.47h480a8.005 8.005 0 0 0 7.61-10.47zm-135.61-293.53h4a12.01 12.01 0 0 1 12 12v24a12.01 12.01 0 0 1 -12 12h-4zm-35.14 172.56c-3.53 13.4-11.08 35.09-24.96 47.06-3.22-8.33-8.69-20.35-16.51-30.65 12.51-6.18 19.81-13.24 23.89-20.1zm-188.86-124.56h-4a12.01 12.01 0 0 1 -12-12v-24a12.01 12.01 0 0 1 12-12h4zm-40-148a76.014 76.014 0 0 1 144.69-32.57 8.011 8.011 0 0 0 7.23 4.57h44.08a52.063 52.063 0 0 1 52 52v51.49c-18.1-2.45-23.73-13.31-28.37-22.25-2.89-5.59-5.89-11.37-12.39-12.37-6.43-1-11.3 3.87-12.9 5.47-19.06 19.07-61.72 29.88-117 29.66h-1.34a76.082 76.082 0 0 1 -76-76zm56 148v-58.2a91.548 91.548 0 0 0 20 2.2h1.27c.75.01 1.64.01 2.68.01a345.391 345.391 0 0 0 53.32-3.96c32.31-5.16 56.25-15 71.22-29.25.32.61.65 1.24.94 1.8 5.22 10.07 14.57 28.08 42.57 30.99v56.41a96 96 0 0 1 -192 0zm36.72 120.87c4.06 6.82 11.3 13.85 23.69 20-7.86 10.32-13.36 22.39-16.59 30.75-13.87-11.96-21.41-33.62-24.94-47zm51.28 119.13h-8a8 8 0 0 0 -16 0h-112v-32a8 8 0 0 0 -16 0v32h-68.98l15.34-47.15c.03-.1.06-.19.08-.28a71.854 71.854 0 0 1 54.4-50.68l66.38-13.97a1.286 1.286 0 0 0 .04.19c10.49 40.34 28.17 56.55 41.16 63.05a8.01 8.01 0 0 0 11.27-4.96c.07-.26 7.06-24.13 20.23-39.06 4.62 1.51 8.83 2.62 12.08 3.38zm-40-136v-2.82a111.88 111.88 0 0 0 96 0v2.82c0 6.4-3.98 15.78-22.96 24.16a124.8 124.8 0 0 1 -25.08 7.72c-13.79-2.53-47.96-12.83-47.96-31.88zm208 136v-32a8 8 0 0 0 -16 0v32h-136v-89.48c3.2-.75 7.32-1.83 11.86-3.31 13.14 14.93 20.1 38.73 20.17 38.99a8.01 8.01 0 0 0 11.27 4.96c12.99-6.5 30.68-22.72 41.18-63.1a1.18 1.18 0 0 0 .04-.2l66.64 14.03a71.854 71.854 0 0 1 54.4 50.68c.02.09.05.18.08.28l15.34 47.15z"/><path d="m280 296a8 8 0 0 0 -8-8h-32a8 8 0 0 0 0 16h32a8 8 0 0 0 8-8z"/><circle cx="208" cy="216" r="16"/><circle cx="304" cy="216" r="16"/><circle cx="232" cy="448" r="8"/></g></g></svg>