<svg id="Line" height="512" viewBox="0 0 64 64" width="512" xmlns="http://www.w3.org/2000/svg"><path d="m20 45h24a8 8 0 0 1 8 8v8a0 0 0 0 1 0 0h-40a0 0 0 0 1 0 0v-8a8 8 0 0 1 8-8z" fill="#5bcbfa"/><path d="m29 49h6l1 12h-8z" fill="#ec455a"/><path d="m23 45 2 8 5-4-1-4z" fill="#fff"/><path d="m41 45-2 8-5-4 1-4z" fill="#fff"/><path d="m52.9 34.99a5 5 0 0 1 -4.9 4.01h-32a5 5 0 0 1 -4.9-4.01 4.986 4.986 0 0 0 4.9-4.99v-11c0-11.5 7.16-16 16-16a15.979 15.979 0 0 1 16 16v11a4.986 4.986 0 0 0 4.9 4.99z" fill="#3e3d42"/><path d="m38 45-6 6-6-6 1-12h10z" fill="#ffcbbe"/><path d="m45 23v5a13 13 0 0 1 -26 0v-5l1.89-2.79a4.02 4.02 0 0 1 3.58-2.21h6.53a6 6 0 0 0 6-6 5 5 0 0 0 4 4.9 2.088 2.088 0 0 1 1.49 1.08z" fill="#ffddce"/><path d="m44 44h-5.081l-.307-3.665c.192-.1.375-.223.562-.335h8.826a6.014 6.014 0 0 0 5.881-4.812 1 1 0 0 0 -.966-1.2 4 4 0 0 1 -3.915-3.988v-11a16.979 16.979 0 0 0 -17-17c-10.8 0-17 6.2-17 17v11a4 4 0 0 1 -3.915 3.99 1 1 0 0 0 -.966 1.2 6.014 6.014 0 0 0 5.881 4.81h8.816c.19.115.376.238.572.343l-.307 3.657h-5.081a9.01 9.01 0 0 0 -9 9v8a1 1 0 0 0 1 1h40a1 1 0 0 0 1-1v-8a9.01 9.01 0 0 0 -9-9zm-8.5 4.917 2.914-2.917h1.306l-1.312 5.246zm-3.5-8.917a12.008 12.008 0 0 1 -12-12v-4.693l1.718-2.536a1.028 1.028 0 0 0 .064-.111 3.037 3.037 0 0 1 2.688-1.66h6.53a7 7 0 0 0 6.089-3.55q.133.189.28.367a6.036 6.036 0 0 0 3.431 2.064 1.1 1.1 0 0 1 .795.547l2.405 4.808v4.764a12.013 12.013 0 0 1 -12 12zm-16-2a4.013 4.013 0 0 1 -3.562-2.18 6.018 6.018 0 0 0 4.562-5.82v-11c0-13.052 9.4-15 15-15a14.978 14.978 0 0 1 15 15v11a6.018 6.018 0 0 0 4.562 5.82 4.013 4.013 0 0 1 -3.562 2.18h-6.221a13.952 13.952 0 0 0 4.221-10v-5a1 1 0 0 0 -.1-.447l-2.51-5.02a3.083 3.083 0 0 0 -2.19-1.613 4 4 0 0 1 -3.2-3.92 1 1 0 0 0 -2 0 5.006 5.006 0 0 1 -5 5h-6.53a5.059 5.059 0 0 0 -4.443 2.7l-1.855 2.74a1 1 0 0 0 -.172.56v5a13.907 13.907 0 0 0 4.1 9.9c.036.037.076.067.113.1zm16 4a13.916 13.916 0 0 0 4.676-.82l.289 3.441-4.965 4.965-4.965-4.965.288-3.437a13.975 13.975 0 0 0 4.677.816zm-6.414 4 2.914 2.917-2.911 2.329-1.309-5.246zm-12.586 7a7.009 7.009 0 0 1 7-7h2.22l1.81 7.242a1 1 0 0 0 1.595.539l2.116-1.692-.661 7.911h-14.08zm16.087 7 .8-9.631.036-.029 1.367 1.367a1 1 0 0 0 1.414 0l1.367-1.367.036.029.8 9.631zm21.913 0h-14.08l-.661-7.911 2.116 1.692a1 1 0 0 0 1.595-.539l1.81-7.242h2.22a7.009 7.009 0 0 1 7 7z"/><path d="m27 21a1 1 0 0 0 -1 1v2a1 1 0 0 0 2 0v-2a1 1 0 0 0 -1-1z"/><path d="m37 21a1 1 0 0 0 -1 1v2a1 1 0 0 0 2 0v-2a1 1 0 0 0 -1-1z"/></svg>