<svg id="Capa_1" enable-background="new 0 0 511.998 511.998" height="512" viewBox="0 0 511.998 511.998" width="512" xmlns="http://www.w3.org/2000/svg"><g><path d="m382.354 60.813c-30.069-37.119-75.795-60.813-127.005-60.813-48.999 0-92.979 21.693-123.025 56.082-17.381 19.894-26.755 45.639-26.755 72.164v1.501 146.226c0 8.432 6.836 15.267 15.267 15.267h270.327c8.432 0 15.267-6.836 15.267-15.267v-146.226c0-25.076-8.35-49.52-24.076-68.934z" fill="#ac5e2e"/><path d="m406.43 129.743v146.229c0 8.434-6.838 15.272-15.272 15.272h-21.327c8.434 0 15.272-6.838 15.272-15.272v-146.229c0-12.532-2.09-24.91-6.138-36.588-4.057-11.667-10.082-22.635-17.939-32.346-27.979-34.529-69.5-57.441-116.396-60.458 3.542-.237 7.116-.35 10.72-.35 51.211 0 96.933 23.695 127.003 60.809 7.868 9.711 13.881 20.678 17.939 32.346 4.047 11.677 6.138 24.055 6.138 36.587z" fill="#9e5528"/><g><path d="m431.277 507.064h-349.053c-.28-4.802-.28-4.568-.06-9.12 1.847-38.772 19.164-69.514 48.702-94.7 27.449-23.414 53.585-36.493 69.74-42.166 2.85-1.001 4.526-6.438 6.48-7.035 2.426-.742 4.899-1.273 7.372-1.836 1.954-.445 3.642-1.218 5.094-2.243 10.991-7.677 8.835-29.349 8.835-29.349h55.223s-2.156 21.672 8.835 29.349c1.452 1.026 3.141 1.799 5.094 2.243 2.474.563 4.946 1.094 7.372 1.836 2.143.655 5.591 5.863 8.802 7.006 16.314 5.807 40.669 13.967 67.65 36.981 29.538 25.186 48.126 61.143 49.973 99.915.221 4.552.221 4.318-.059 9.119z" fill="#ffa78f"/><path d="m434.914 511.998h-357.829c-.278-4.799-.278-9.505-.062-14.057 1.843-38.771 20.431-74.731 49.975-99.909 34.106-29.091 70.973-41.356 82.074-44.579 0 0 .772 49.001 41.097 71.895 3.604 2.046 8.056 2.046 11.659 0 40.326-22.894 41.098-71.895 41.098-71.895 11.101 3.223 47.967 15.488 82.074 44.579 29.544 25.178 48.132 61.138 49.975 99.909.217 4.553.217 9.259-.061 14.057z" fill="#cd7cbb"/><path d="m434.914 511.998h-18.536l-2.818-.103c-1.843-38.771-17.612-74.731-47.157-99.91-24.148-20.596-49.677-32.757-66.472-39.255 2.863-11.173 2.997-19.277 2.997-19.277 11.101 3.223 47.967 15.488 82.074 44.579 29.544 25.178 48.132 61.138 49.975 99.909.215 4.553.215 9.259-.063 14.057z" fill="#c365af"/></g><path d="m356.55 115.043 12.175 42.193v37.974 9.948l-2.754 12.548c0 3.841-.193 7.642-.569 11.381-2.662 26.584-14.204 46.125-32.089 64.009-20.395 20.395-46.178 33.265-77.314 33.265-32.573 0-58.865-12.32-79.026-33.265-15.999-16.621-29.093-38.748-31.615-63.926-.376-3.74-.569-7.54-.569-11.381v-13.968l-1.515-8.612v-54.025l10.805-26.143h202.471z" fill="#ffcebf"/><path d="m356.55 115.038 12.18 28.141v52.031l-1.91 6.345-.511 17.102c0 3.841-.196 7.641-.577 11.379-2.657 26.589-13.446 45.659-31.333 63.536-20.39 20.4-47.259 34.672-78.4 34.672-3.47 0-6.91-.155-10.298-.474 27.032-2.43 51.293-14.417 69.407-32.541 17.887-17.877 29.792-41.737 32.448-68.326.381-3.738.577-7.538.577-11.379v-100.486z" fill="#ffb09e"/><g><g><path d="m209.924 215.983c-4.142 0-7.5-3.358-7.5-7.5v-13.854c0-4.142 3.358-7.5 7.5-7.5s7.5 3.358 7.5 7.5v13.854c0 4.142-3.358 7.5-7.5 7.5z" fill="#596c76"/></g><g><path d="m302.074 215.983c-4.142 0-7.5-3.358-7.5-7.5v-13.854c0-4.142 3.358-7.5 7.5-7.5s7.5 3.358 7.5 7.5v13.854c0 4.142-3.358 7.5-7.5 7.5z" fill="#596c76"/></g></g><path d="m368.725 195.21v20.314c0 3.841-.193 7.642-.569 11.381-2.662 26.584-14.562 50.444-32.447 68.329-20.395 20.395-48.574 33.016-79.71 33.016-58.421 0-106.456-44.438-112.157-101.344-.376-3.74-.569-7.54-.569-11.381v-20.315s23.299 35.488 84.466 45.182c18.715 2.966 37.805 2.966 56.521 0 61.166-9.694 84.465-45.182 84.465-45.182z" fill="#f5f8f9"/><path d="m368.729 195.206v20.318c0 3.841-.196 7.641-.577 11.379-2.657 26.589-14.561 50.449-32.448 68.326-20.39 20.4-48.565 33.015-79.705 33.015-2.588 0-5.167-.113-7.744-.268-.855-.051-1.709-.123-2.554-.206 27.032-2.43 51.293-14.417 69.407-32.541 17.887-17.877 29.792-41.737 32.448-68.326.381-3.738.577-7.538.577-11.379v-.402c14.397-10.472 20.596-19.916 20.596-19.916z" fill="#d9e7ec"/><path d="m348.6 77.934c-15.306-19.072-37.395-31.338-61.046-36.756-20.803-4.765-42.278-4.771-63.109 0-23.651 5.417-45.74 17.684-61.046 36.756-13.18 16.423-20.125 36.985-20.125 58.043v7.202s32.843 9.883 35.38 10.493c7.53 1.809 15.116 3.39 22.747 4.719 8.82 1.536 23.8 2.687 32.691 3.46 0 0 9.181-21.689 21.908-31.422 12.727 9.733 21.908 31.422 21.908 31.422 8.89-.773 23.871-1.924 32.691-3.46 7.631-1.329 15.217-2.91 22.747-4.719 2.537-.609 35.38-10.493 35.38-10.493v-7.202c-.001-21.058-6.946-41.62-20.126-58.043z" fill="#ac5e2e"/></g></svg>